<?xml version="1.0" standalone="no"?>
<!DOCTYPE svg PUBLIC "-//W3C//DTD SVG 20010904//EN"
 "http://www.w3.org/TR/2001/REC-SVG-20010904/DTD/svg10.dtd">
<svg version="1.0" xmlns="http://www.w3.org/2000/svg"
 width="24" height="24" viewBox="0 0 180 180"
 preserveAspectRatio="xMidYMid meet">

<g transform="translate(0,180) scale(0.1,-0.1)"
fill="#f5f5f7" stroke="none">
<path d="M121 1787 c-46 -15 -94 -65 -109 -114 -17 -58 -17 -1488 0 -1546 16
-52 63 -99 115 -115 58 -17 1488 -17 1546 0 52 16 99 63 115 115 17 58 17
1488 0 1546 -16 52 -63 99 -115 115 -54 16 -1501 15 -1552 -1z m542 -522 c132
-66 203 -195 201 -365 -1 -190 -83 -319 -241 -381 -51 -19 -76 -22 -205 -21
-81 0 -152 3 -158 7 -16 10 -14 782 3 789 6 3 86 4 177 3 161 -2 167 -3 223
-32z m753 3 c184 -97 177 -342 -13 -433 -49 -24 -74 -29 -165 -33 l-108 -5 0
-148 0 -149 -55 0 -55 0 0 394 c0 306 3 396 13 400 6 3 84 4 172 3 152 -2 162
-4 211 -29z"/>
<path d="M387 1204 c-16 -5 -17 -26 -15 -307 l3 -302 80 0 c102 1 156 17 205
61 66 60 84 111 84 239 0 94 -3 117 -22 156 -30 60 -77 107 -130 131 -43 19
-168 32 -205 22z"/>
<path d="M1130 1050 l0 -162 93 4 c148 6 211 56 211 165 0 100 -63 146 -211
151 l-93 4 0 -162z"/>
</g>
</svg>
